<svg width="53" height="54" viewBox="0 0 53 54" fill="none" xmlns="http://www.w3.org/2000/svg">
<path d="M32.4591 35.387L37.2142 49.1888L20.2665 44.1628L32.4591 35.387Z" fill="white"/>
<path d="M26.0684 0C40.4653 1.05802e-05 52.1365 9.98262 52.1367 22.2969C52.1367 34.6113 40.4655 44.5947 26.0684 44.5947C11.6712 44.5947 0 34.6113 0 22.2969C0.000253077 9.98261 11.6714 0 26.0684 0Z" fill="white"/>
<path d="M26.0684 0C40.4653 1.05802e-05 52.1365 9.98262 52.1367 22.2969C52.1367 34.6113 40.4655 44.5947 26.0684 44.5947C11.6712 44.5947 0 34.6113 0 22.2969C0.000253077 9.98261 11.6714 0 26.0684 0Z" stroke="#50D5E0"/>
<path d="M11.8733 15.4389H13.5563V31.1979H11.8733V15.4389ZM9.25533 21.0319H16.1573V22.7319H9.25533V21.0319ZM11.5673 21.9329L12.5873 22.4259C12.44 23.0039 12.2643 23.6103 12.0603 24.2449C11.8677 24.8683 11.6467 25.4916 11.3973 26.1149C11.1593 26.7269 10.9043 27.3106 10.6323 27.8659C10.3603 28.4099 10.0827 28.8803 9.79933 29.2769C9.74266 29.0843 9.66333 28.8803 9.56133 28.6649C9.47066 28.4383 9.36866 28.2173 9.25533 28.0019C9.15333 27.7753 9.05133 27.5769 8.94933 27.4069C9.30066 26.9876 9.64066 26.4606 9.96933 25.8259C10.3093 25.1913 10.621 24.5339 10.9043 23.8539C11.1877 23.1626 11.4087 22.5223 11.5673 21.9329ZM13.5393 22.8679C13.63 22.9586 13.7603 23.1059 13.9303 23.3099C14.1117 23.5139 14.31 23.7406 14.5253 23.9899C14.7407 24.2393 14.9503 24.4943 15.1543 24.7549C15.3583 25.0156 15.5397 25.2479 15.6983 25.4519C15.8683 25.6559 15.9873 25.8089 16.0553 25.9109L14.9333 27.3389C14.82 27.1009 14.667 26.8119 14.4743 26.4719C14.293 26.1319 14.089 25.7806 13.8623 25.4179C13.6357 25.0439 13.4203 24.6983 13.2163 24.3809C13.0123 24.0523 12.8367 23.7916 12.6893 23.5989L13.5393 22.8679ZM9.27233 16.7309L10.5473 16.3909C10.706 16.7989 10.8477 17.2409 10.9723 17.7169C11.097 18.1816 11.199 18.6349 11.2783 19.0769C11.369 19.5189 11.4313 19.9213 11.4653 20.2839L10.0713 20.6409C10.06 20.2896 10.0147 19.8873 9.93533 19.4339C9.85599 18.9806 9.75966 18.5159 9.64633 18.0399C9.53299 17.5639 9.40833 17.1276 9.27233 16.7309ZM14.8313 16.3059L16.3953 16.6629C16.248 17.1163 16.095 17.5866 15.9363 18.0739C15.7777 18.5499 15.619 19.0089 15.4603 19.4509C15.3017 19.8929 15.1487 20.2839 15.0013 20.6239L13.8453 20.2839C13.97 19.9326 14.0947 19.5246 14.2193 19.0599C14.344 18.5839 14.463 18.1079 14.5763 17.6319C14.6897 17.1446 14.7747 16.7026 14.8313 16.3059ZM21.3083 15.3539H23.0423V31.2149H21.3083V15.3539ZM16.1063 26.0469L24.8443 24.4659L25.1163 26.1659L16.3953 27.7469L16.1063 26.0469ZM17.1603 17.5979L18.0613 16.3569C18.39 16.5496 18.7243 16.7649 19.0643 17.0029C19.4157 17.2409 19.7443 17.4846 20.0503 17.7339C20.3563 17.9833 20.6 18.2156 20.7813 18.4309L19.8293 19.8079C19.6593 19.5813 19.427 19.3376 19.1323 19.0769C18.8377 18.8163 18.5147 18.5556 18.1633 18.2949C17.8233 18.0343 17.489 17.8019 17.1603 17.5979ZM16.3613 21.8819L17.2113 20.5899C17.5513 20.7599 17.9027 20.9583 18.2653 21.1849C18.628 21.4116 18.9737 21.6439 19.3023 21.8819C19.631 22.1086 19.8973 22.3296 20.1013 22.5449L19.1833 23.9899C18.9907 23.7859 18.7357 23.5593 18.4183 23.3099C18.101 23.0493 17.761 22.7943 17.3983 22.5449C17.047 22.2956 16.7013 22.0746 16.3613 21.8819ZM35.0103 17.1049C34.5457 17.7623 33.9563 18.4423 33.2423 19.1449C32.5283 19.8363 31.735 20.5049 30.8623 21.1509C30.001 21.7856 29.1 22.3523 28.1593 22.8509C28.08 22.7036 27.978 22.5393 27.8533 22.3579C27.7287 22.1766 27.5927 22.0009 27.4453 21.8309C27.298 21.6496 27.1563 21.4966 27.0203 21.3719C28.0063 20.8959 28.947 20.3179 29.8423 19.6379C30.7377 18.9579 31.5423 18.2439 32.2563 17.4959C32.9817 16.7366 33.554 16.0113 33.9733 15.3199H35.8773C36.3307 15.9433 36.8407 16.5496 37.4073 17.1389C37.974 17.7283 38.5747 18.2779 39.2093 18.7879C39.844 19.2866 40.4957 19.7399 41.1643 20.1479C41.8443 20.5559 42.5187 20.8959 43.1873 21.1679C42.972 21.3946 42.7567 21.6553 42.5413 21.9499C42.3373 22.2446 42.156 22.5279 41.9973 22.7999C41.34 22.4599 40.677 22.0689 40.0083 21.6269C39.351 21.1849 38.7107 20.7089 38.0873 20.1989C37.464 19.6889 36.886 19.1733 36.3533 18.6519C35.832 18.1306 35.3843 17.6149 35.0103 17.1049ZM30.7773 20.4709H39.3283V22.0859H30.7773V20.4709ZM28.6863 23.9389H41.3853V25.5199H28.6863V23.9389ZM27.8533 29.1579H42.3203V30.7219H27.8533V29.1579ZM34.0243 21.1169H35.9623V29.9569H34.0243V21.1169ZM29.8593 26.2169L31.3213 25.6219C31.548 25.9053 31.7633 26.2226 31.9673 26.5739C32.1827 26.9253 32.3753 27.2709 32.5453 27.6109C32.7153 27.9396 32.84 28.2399 32.9193 28.5119L31.3383 29.2089C31.2703 28.9369 31.157 28.6253 30.9983 28.2739C30.851 27.9226 30.6753 27.5713 30.4713 27.2199C30.2673 26.8573 30.0633 26.5229 29.8593 26.2169ZM38.5633 25.6219L40.2973 26.2679C39.9687 26.7893 39.623 27.3163 39.2603 27.8489C38.8977 28.3816 38.5577 28.8349 38.2403 29.2089L36.8803 28.6309C37.073 28.3589 37.2713 28.0473 37.4753 27.6959C37.6907 27.3446 37.8947 26.9876 38.0873 26.6249C38.28 26.2623 38.4387 25.9279 38.5633 25.6219Z" fill="#50D5E0"/>
</svg>
