<svg width="64" height="64" viewBox="0 0 64 64" fill="none" xmlns="http://www.w3.org/2000/svg">
<rect width="64" height="64" fill="white"/>
<path d="M48.9188 10.435C46.028 7.08256 42.2982 5 39.1997 5C36.8821 5 34.4067 6.4324 32.2386 9.0229C31.4826 9.92704 30.4027 10.4451 29.2647 10.4451C28.1267 10.4451 27.0385 9.92704 26.2908 9.0229C24.1228 6.4324 21.6556 5 19.3297 5C16.2229 5 12.5014 7.08256 9.61066 10.435C6.31283 14.2547 4.65976 18.9684 5.05849 23.3774C5.5486 28.7615 8.28987 37.8436 11.8701 45.9706C13.6561 50.0139 15.4753 53.4374 17.145 55.8857C19.4709 59.2889 20.9745 60 21.8301 60C22.1873 60 22.5195 59.8781 22.8186 59.6444C23.6825 58.9435 24.5962 57.379 25.618 54.8495C26.241 53.3053 27.6781 52.2996 29.2647 52.2996C30.8513 52.2996 32.2967 53.3053 32.9114 54.8495C33.9249 57.379 34.8386 58.9536 35.7108 59.6444C36.0099 59.8781 36.3422 60 36.6994 60C37.555 60 39.0585 59.2889 41.3844 55.8857C43.0541 53.4475 44.8733 50.0139 46.6593 45.9706C50.2395 37.8436 52.9808 28.7615 53.4709 23.3774C53.8697 18.9684 52.2166 14.2547 48.9188 10.4451V10.435ZM50.6798 23.0929C50.2229 28.1012 47.5232 36.9902 44.1174 44.7211C42.4062 48.6018 40.6783 51.8628 39.1083 54.1485C38.1115 55.6012 37.3971 56.3428 36.9652 56.7187C36.6412 56.2209 36.1511 55.3066 35.4949 53.6812C34.4316 51.0399 31.9894 49.3332 29.2647 49.3332C26.5401 49.3332 24.0978 51.0399 23.0346 53.6812C22.3783 55.3066 21.8882 56.2209 21.5642 56.7187C21.1323 56.3428 20.4096 55.6012 19.4211 54.1485C17.8511 51.8526 16.1232 48.5916 14.412 44.7211C11.0062 36.9902 8.30648 28.1012 7.8496 23.0929C7.52563 19.517 8.92119 15.6262 11.6874 12.4261C14.0299 9.7137 17.0287 7.95622 19.338 7.95622C20.8166 7.95622 22.586 9.05338 24.1975 10.9836C25.4851 12.5175 27.3292 13.4014 29.273 13.4014C31.2168 13.4014 33.0693 12.5175 34.3485 10.9836C35.9517 9.06354 37.7211 7.95622 39.208 7.95622C41.509 7.95622 44.5161 9.7137 46.8587 12.4261C49.6248 15.6262 51.0204 19.517 50.6964 23.0929H50.6798Z" fill="#EDB0BF"/>
<path d="M55.3893 10.436C52.4985 7.08295 48.7687 5 45.6702 5C43.3526 5 40.8772 6.43266 38.7091 9.02365C37.9531 9.92795 36.8732 10.4461 35.7352 10.4461C34.5971 10.4461 33.5089 9.92795 32.7613 9.02365C30.5932 6.43266 28.1261 5 25.8001 5C22.6933 5 18.9718 7.08295 16.081 10.436C12.7915 14.2564 11.1301 18.971 11.5289 23.3706C12.019 28.7558 14.7602 37.8395 18.3405 45.968C20.1265 50.012 21.9457 53.4362 23.6154 55.8849C25.9413 59.2887 27.4449 60 28.3005 60C28.6577 60 28.99 59.8781 29.289 59.6444C30.1529 58.9433 31.0667 57.3785 32.0884 54.8485C32.7115 53.3041 34.1486 52.2982 35.7352 52.2982C37.3218 52.2982 38.7672 53.3041 39.3819 54.8485C40.3954 57.3785 41.3091 58.9534 42.1813 59.6444C42.4804 59.8781 42.8127 60 43.1699 60C44.0255 60 45.529 59.2887 47.855 55.8849C49.5246 53.4463 51.3439 50.012 53.1298 45.968C56.7101 37.8395 59.4514 28.7558 59.9415 23.3706C60.3402 18.9608 58.6872 14.2463 55.3893 10.436ZM57.1504 23.0962C56.6935 28.1055 53.9938 36.9961 50.5879 44.7284C48.8767 48.6098 47.1489 51.8714 45.5789 54.1576C44.582 55.6106 43.8676 56.3523 43.4357 56.7282C43.1117 56.2304 42.6216 55.3159 41.9654 53.6902C40.9021 51.0484 38.4598 49.3414 35.7352 49.3414C33.0105 49.3414 30.5683 51.0484 29.505 53.6902C28.8488 55.3159 28.3586 56.2304 28.0347 56.7282C27.6027 56.3523 26.88 55.6106 25.8915 54.1576C24.3215 51.8613 22.5937 48.5997 20.8824 44.7284C17.4766 36.9961 14.7769 28.1055 14.32 23.0962C13.996 19.5197 15.3916 15.6281 18.1578 12.4275C20.5003 9.71458 23.4991 7.95677 25.8084 7.95677C27.2871 7.95677 29.0564 9.05413 30.668 10.9847C31.9555 12.5189 33.7997 13.4029 35.7435 13.4029C37.6873 13.4029 39.5397 12.5189 40.819 10.9847C42.4222 9.06429 44.1916 7.95677 45.6785 7.95677C47.9796 7.95677 50.9867 9.71458 53.3292 12.4275C56.0954 15.6281 57.491 19.5197 57.167 23.0962H57.1504Z" fill="#C0E5E8"/>
</svg>
