<svg width="178" height="49" viewBox="0 0 178 49" fill="none" xmlns="http://www.w3.org/2000/svg">
<path d="M175.747 42.8924C173.505 42.8924 171.948 41.1819 171.948 38.3903C171.948 35.6105 173.578 33.8524 175.747 33.8524C176.588 33.8524 177.221 34.0544 177.896 34.5058L177.917 36.4183H177.45L177.107 34.3514L177.626 34.5533V34.9691C177.045 34.4702 176.547 34.2682 175.882 34.2682C174.159 34.2682 172.934 35.7412 172.934 38.3784C172.934 41.0274 174.159 42.4767 175.841 42.4767C176.505 42.4767 177.097 42.2866 177.689 41.7877V42.1797L177.18 42.346L177.533 40.3266H178L177.979 42.2272C177.284 42.7024 176.588 42.8924 175.747 42.8924Z" fill="#333333"/>
<path d="M168.09 42.6905V42.3341L169.523 42.1916H169.751L171.194 42.3341V42.6905H168.09ZM169.159 42.6905C169.18 41.3838 169.18 40.0415 169.18 38.6991V38.0458C169.18 36.7034 169.18 35.373 169.159 34.0425H170.125C170.104 35.3611 170.104 36.7034 170.104 38.0458V38.6991C170.104 40.0415 170.104 41.3719 170.125 42.6905H169.159ZM168.09 34.4108V34.0425H171.194V34.4108L169.751 34.5414H169.523L168.09 34.4108Z" fill="#333333"/>
<path d="M160.004 42.6905V42.3341L161.104 42.1916H161.322L162.661 42.3341V42.6905H160.004ZM161 42.6905V34.3276H161.364L161.405 38.9011V42.6905H161ZM164.737 34.4108V34.0425H167.394V34.4108L166.305 34.5414H166.087L164.737 34.4108ZM165.941 42.7737L161.27 34.9334L161.249 34.9097L161 34.482L159.983 34.4108V34.0425H161.82L166.201 41.4788L166.014 41.5501L166.004 37.9983V34.0425H166.388V42.7737H165.941Z" fill="#333333"/>
<path d="M156.088 42.6905V42.3341L157.52 42.1916H157.748L159.191 42.3341V42.6905H156.088ZM157.157 42.6905C157.178 41.3838 157.178 40.0415 157.178 38.6991V38.0458C157.178 36.7034 157.178 35.373 157.157 34.0425H158.122C158.101 35.3611 158.101 36.7034 158.101 38.0458V38.6991C158.101 40.0415 158.101 41.3719 158.122 42.6905H157.157ZM156.088 34.4108V34.0425H159.191V34.4108L157.748 34.5414H157.52L156.088 34.4108Z" fill="#333333"/>
<path d="M149.919 42.6905L149.93 42.3341L151.352 42.1916H151.476V42.6905H149.919ZM150.988 42.6905C151.009 41.3838 151.009 40.0415 151.009 38.7942V38.0458C151.009 36.7034 151.009 35.3611 150.988 34.0425H151.954C151.933 35.373 151.933 36.7034 151.933 38.2121V38.9011C151.933 40.0415 151.933 41.3719 151.954 42.6905H150.988ZM151.476 42.6905V42.2866H155.099L154.673 42.5836L155.037 40.386H155.483L155.41 42.6905H151.476ZM149.919 34.4108V34.0425H153.054V34.4108L151.59 34.5414H151.352L149.919 34.4108Z" fill="#333333"/>
<path d="M146.791 42.8924C144.548 42.8924 142.991 41.1819 142.991 38.3903C142.991 35.6105 144.621 33.8524 146.791 33.8524C147.631 33.8524 148.265 34.0544 148.939 34.5058L148.96 36.4183H148.493L148.15 34.3514L148.669 34.5533V34.9691C148.088 34.4702 147.59 34.2682 146.925 34.2682C145.202 34.2682 143.978 35.7412 143.978 38.3784C143.978 41.0274 145.202 42.4767 146.884 42.4767C147.548 42.4767 148.14 42.2866 148.732 41.7877V42.1797L148.223 42.346L148.576 40.3266H149.043L149.022 42.2272C148.327 42.7024 147.631 42.8924 146.791 42.8924Z" fill="#333333"/>
<path d="M134.014 42.6905L134.024 42.3341L135.447 42.1916H135.571V42.6905H134.014ZM135.083 42.6905C135.104 41.3838 135.104 40.0415 135.104 38.7942V38.0458C135.104 36.7034 135.104 35.3611 135.083 34.0425H136.049C136.028 35.373 136.028 36.7034 136.028 38.2121V38.9011C136.028 40.0415 136.028 41.3719 136.049 42.6905H135.083ZM135.571 42.6905V42.2866H139.194L138.768 42.5836L139.131 40.386H139.578L139.505 42.6905H135.571ZM134.014 34.4108V34.0425H137.149V34.4108L135.685 34.5414H135.447L134.014 34.4108Z" fill="#333333"/>
<path d="M126.427 42.6903V42.334L127.454 42.2033H127.631L128.752 42.334V42.6903H126.427ZM127.184 42.6903L129.717 33.9711H130.298L132.873 42.6903H131.938L129.644 34.6838H129.862L129.821 34.8501L127.62 42.6903H127.184ZM128.305 39.7443L128.336 39.3642H131.502L131.534 39.7443H128.305ZM130.651 42.6903V42.334L132.032 42.2033H132.333L133.693 42.334V42.6903H130.651Z" fill="#333333"/>
<path d="M122.111 42.6905V42.3341L123.637 42.1916H123.896L125.433 42.3341V42.6905H122.111ZM123.294 42.6905C123.326 41.3838 123.326 40.0415 123.326 38.6991V38.0458C123.326 36.7034 123.326 35.373 123.294 34.0425H124.26C124.239 35.3611 124.239 36.7034 124.239 38.0458V38.6991C124.239 40.0415 124.239 41.3719 124.26 42.6905H123.294ZM120.585 36.2995L120.668 34.0425H126.886L126.979 36.2995H126.533L126.159 34.0425L126.585 34.4702H120.959L121.405 34.0425L121.021 36.2995H120.585Z" fill="#333333"/>
<path d="M112.76 42.6905V42.3341L113.86 42.1916H114.078L115.417 42.3341V42.6905H112.76ZM113.756 42.6905V34.3276H114.119L114.161 38.9011V42.6905H113.756ZM117.493 34.4108V34.0425H120.15V34.4108L119.06 34.5414H118.842L117.493 34.4108ZM118.697 42.7737L114.026 34.9334L114.005 34.9097L113.756 34.482L112.739 34.4108V34.0425H114.576L118.957 41.4788L118.77 41.5501L118.759 37.9983V34.0425H119.143V42.7737H118.697Z" fill="#333333"/>
<path d="M106.279 42.6905V42.3341L107.711 42.1916H107.836V42.6905H106.279ZM107.348 42.6905C107.369 41.3838 107.369 40.0415 107.369 38.6991V38.0458C107.369 36.7034 107.369 35.373 107.348 34.0425H108.313C108.293 35.3611 108.293 36.7034 108.293 38.1883V38.4497C108.293 40.0415 108.293 41.3719 108.313 42.6905H107.348ZM107.836 42.6905V42.2866H111.718L111.261 42.5955L111.604 40.5285H112.05L111.977 42.6905H107.836ZM107.836 38.5091V38.1052H110.327V38.5091H107.836ZM110.254 39.7207L110.119 38.4022V38.1527L110.254 36.8697H110.618V39.7207H110.254ZM106.279 34.4108V34.0425H107.836V34.5414H107.711L106.279 34.4108ZM111.417 36.1808L111.074 34.1375L111.542 34.4702H107.836V34.0425H111.791L111.863 36.1808H111.417Z" fill="#333333"/>
<path d="M98.7216 42.6905V42.3341L100.154 42.1916H100.279V42.6905H98.7216ZM99.7907 42.6905C99.8115 41.3838 99.8115 40.0415 99.8115 38.4497V38.1171C99.8115 36.7034 99.8115 35.373 99.7907 34.0425H100.756C100.735 35.3611 100.735 36.7034 100.735 38.1171V38.4497C100.735 40.0415 100.735 41.3719 100.756 42.6905H99.7907ZM100.279 42.6905V42.2985H101.597C103.579 42.2985 104.607 40.8136 104.607 38.3784C104.607 35.8125 103.569 34.4464 101.701 34.4464H100.279V34.0425H101.836C104.171 34.0425 105.583 35.6224 105.583 38.3665C105.583 41.0393 104.109 42.6905 101.68 42.6905H100.279ZM98.7216 34.4108V34.0425H100.279V34.5414H100.154L98.7216 34.4108Z" fill="#333333"/>
<path d="M88.3971 42.6903V42.334L89.4248 42.2033H89.6012L90.7223 42.334V42.6903H88.3971ZM89.1549 42.6903L91.6876 33.9711H92.2689L94.8432 42.6903H93.909L91.615 34.6838H91.833L91.7914 34.8501L89.5909 42.6903H89.1549ZM90.2759 39.7443L90.3071 39.3642H93.473L93.5042 39.7443H90.2759ZM92.6219 42.6903V42.334L94.0024 42.2033H94.3034L95.6632 42.334V42.6903H92.6219Z" fill="#333333"/>
<path d="M81.5594 42.6905V42.3341L82.9919 42.1916H83.1165V42.6905H81.5594ZM82.6286 42.6905C82.6494 41.3838 82.6494 40.0415 82.6494 38.4497V38.1171C82.6494 36.7034 82.6494 35.373 82.6286 34.0425H83.594C83.5732 35.3611 83.5732 36.7034 83.5732 38.1171V38.4497C83.5732 40.0415 83.5732 41.3719 83.594 42.6905H82.6286ZM83.1165 42.6905V42.2985H84.4347C86.4174 42.2985 87.445 40.8136 87.445 38.3784C87.445 35.8125 86.407 34.4464 84.5385 34.4464H83.1165V34.0425H84.6735C87.009 34.0425 88.4207 35.6224 88.4207 38.3665C88.4207 41.0393 86.9467 42.6905 84.5178 42.6905H83.1165ZM81.5594 34.4108V34.0425H83.1165V34.5414H82.9919L81.5594 34.4108Z" fill="#333333"/>
<path d="M73.4731 42.6905V42.3341L74.5734 42.1916H74.7914L76.1305 42.3341V42.6905H73.4731ZM74.4696 42.6905V34.3276H74.8329L74.8745 38.9011V42.6905H74.4696ZM78.2065 34.4108V34.0425H80.8638V34.4108L79.7739 34.5414H79.5559L78.2065 34.4108ZM79.4106 42.7737L74.7395 34.9334L74.7188 34.9097L74.4696 34.482L73.4524 34.4108V34.0425H75.2897L79.6701 41.4788L79.4832 41.5501L79.4729 37.9983V34.0425H79.8569V42.7737H79.4106Z" fill="#333333"/>
<path d="M65.9079 42.6903V42.334L66.9355 42.2033H67.112L68.2331 42.334V42.6903H65.9079ZM66.6657 42.6903L69.1984 33.9711H69.7797L72.354 42.6903H71.4198L69.1258 34.6838H69.3437L69.3022 34.8501L67.1016 42.6903H66.6657ZM67.7867 39.7443L67.8179 39.3642H70.9838L71.0149 39.7443H67.7867ZM70.1326 42.6903V42.334L71.5132 42.2033H71.8142L73.174 42.334V42.6903H70.1326Z" fill="#333333"/>
<path d="M61.5924 42.6905V42.3341L63.1183 42.1916H63.3778L64.914 42.3341V42.6905H61.5924ZM62.7757 42.6905C62.8069 41.3838 62.8069 40.0415 62.8069 38.6991V38.0458C62.8069 36.7034 62.8069 35.373 62.7757 34.0425H63.7411C63.7203 35.3611 63.7203 36.7034 63.7203 38.0458V38.6991C63.7203 40.0415 63.7203 41.3719 63.7411 42.6905H62.7757ZM60.0665 36.2995L60.1495 34.0425H66.3672L66.4607 36.2995H66.0143L65.6406 34.0425L66.0662 34.4702H60.4402L60.8865 34.0425L60.5025 36.2995H60.0665Z" fill="#333333"/>
<path d="M56.1245 42.8924C54.2976 42.8924 52.7405 41.2294 52.7405 38.3784C52.7405 35.5512 54.2976 33.8524 56.1245 33.8524C57.9721 33.8524 59.5292 35.5155 59.5292 38.3784C59.5292 41.2056 57.9721 42.8924 56.1245 42.8924ZM56.1245 42.4767C57.7126 42.4767 58.543 40.6117 58.543 38.3784C58.543 36.1451 57.7126 34.2682 56.1245 34.2682C54.5467 34.2682 53.7163 36.1451 53.7163 38.3784C53.7163 40.6117 54.5467 42.4767 56.1245 42.4767Z" fill="#333333"/>
<path d="M48.952 42.8923C46.6788 42.8923 45.1529 41.0748 45.1529 38.3663C45.1529 35.6698 46.7203 33.8523 48.9832 33.8523C49.9174 33.8523 50.5817 34.0899 51.2253 34.5413L51.2461 36.4419H50.7789L50.426 34.3749L50.9554 34.6125V35.0521C50.3534 34.4937 49.8447 34.268 49.0974 34.268C47.3639 34.268 46.139 35.7767 46.139 38.3782C46.139 40.8966 47.312 42.4765 49.0455 42.4765C49.7098 42.4765 50.2496 42.2983 50.8308 41.9301L50.4883 42.2746V41.5024C50.4883 40.5046 50.4675 39.5542 50.4468 38.5564H51.3914C51.3706 39.4592 51.3602 40.3739 51.3602 41.5143V42.1201C50.5506 42.6547 49.8551 42.8923 48.952 42.8923ZM49.2323 38.9128V38.5564H52.1284V38.9128L51.0073 39.0434H50.6751L49.2323 38.9128Z" fill="#333333"/>
<path d="M166.595 7.56635H175.179V8.18866H166.595V7.56635ZM169.605 4.36588L172.46 4.63259C172.441 4.92152 172.286 5.12155 171.819 5.21045V7.87751H169.605V4.36588ZM174.577 7.56635H174.364L175.471 6.27727L177.413 8.38869C177.257 8.58872 177.063 8.63317 176.655 8.6554C176.073 9.14436 175.043 9.85557 174.325 10.2334L174.131 10.1001C174.286 9.43329 174.5 8.23311 174.577 7.56635ZM166.129 11.3225H172.732L173.82 9.67777C173.82 9.67777 175.063 10.8113 175.82 11.5892C175.762 11.8336 175.548 11.9448 175.276 11.9448H166.284L166.129 11.3225ZM165.275 14.7007H174.053L175.179 12.9449C175.179 12.9449 176.461 14.1451 177.218 14.9674C177.18 15.2119 176.966 15.323 176.694 15.323H165.43L165.275 14.7007ZM159.701 5.92167V4.89929L162.051 5.92167H161.779V24.4132C161.779 24.591 161.138 25.1911 160.089 25.1911H159.701V5.92167ZM160.73 5.92167H164.381V6.54398H160.73V5.92167ZM163.352 5.92167H163.119L164.226 4.67704L166.284 6.87736C166.149 7.09961 165.877 7.16629 165.43 7.18852C164.828 8.49982 163.76 10.7668 162.866 12.1003C164.653 13.5672 165.43 15.612 165.43 17.3455C165.43 19.4792 164.789 20.6794 162.808 20.7238C162.808 20.0793 162.73 19.1458 162.575 18.8569C162.439 18.6346 162.187 18.4346 161.818 18.3235V18.0568C162.09 18.0568 162.536 18.0568 162.711 18.0568C162.905 18.0568 163.002 18.0345 163.119 17.9234C163.333 17.7678 163.449 17.3678 163.449 16.7232C163.449 15.2119 163.177 13.5672 162.381 12.1448C162.73 10.5668 163.177 7.54412 163.352 5.92167ZM166.595 5.98834H166.887C167.741 8.29979 167.391 10.0334 166.653 10.7224C166.129 11.1891 165.255 11.078 164.964 10.3223C164.731 9.61109 165.08 8.98878 165.644 8.63317C166.149 8.18866 166.692 7.05516 166.595 5.98834ZM171.334 14.8785H173.451C173.451 15.1452 173.451 15.4564 173.451 15.6342V21.8573C173.451 22.124 173.509 22.2129 173.859 22.2129H174.655C174.985 22.2129 175.257 22.2129 175.393 22.2129C175.568 22.2129 175.626 22.1685 175.742 21.9462C175.917 21.5684 176.209 20.346 176.5 19.0347H176.733L176.791 22.0796C177.296 22.3463 177.393 22.6574 177.393 23.1019C177.393 24.0576 176.714 24.591 174.441 24.591H173.198C171.606 24.591 171.334 24.1021 171.334 22.5241V14.8785ZM167.663 14.9008H169.974C169.8 20.2571 168.363 23.502 163.061 25.1467L162.964 24.8578C166.906 22.5685 167.625 19.4792 167.663 14.9008Z" fill="#111111"/>
<path d="M146.281 10.2555H152.573L153.777 8.54419C153.777 8.54419 155.117 9.65546 155.972 10.5223C155.914 10.7667 155.7 10.8779 155.428 10.8779H145.99L146.281 10.2555ZM143.737 14.1672H153.525L154.768 12.3892C154.768 12.3892 156.166 13.6116 157.001 14.4562C156.943 14.7006 156.749 14.8118 156.457 14.8118H143.892L143.737 14.1672ZM146.728 6.9884L149.602 8.09968C149.524 8.38861 149.272 8.56641 148.825 8.52196C147.64 10.9668 145.97 12.6114 144.183 13.6338L143.989 13.4116C145.077 11.9225 146.184 9.52211 146.728 6.9884ZM150.087 16.0786C157.293 16.9232 156.283 22.4129 153.855 21.0571C153.137 19.3458 151.389 17.3899 149.951 16.2564L150.087 16.0786ZM148.728 10.3222H151.117C151 16.212 150.942 19.6569 143.795 21.7017L143.62 21.3905C148.922 18.9457 148.709 15.6341 148.728 10.3222ZM140.746 6.07716V4.96589L143.348 6.07716H143.076V24.5465C143.076 24.7243 142.358 25.2577 141.173 25.2577H140.746V6.07716ZM142.3 6.07716H153.564L154.826 4.32135C154.826 4.32135 156.263 5.4993 157.157 6.34387C157.098 6.58835 156.904 6.69947 156.613 6.69947H142.3V6.07716ZM142.261 22.9018H154.108L155.467 20.9682C155.467 20.9682 156.982 22.2795 157.914 23.1908C157.856 23.4352 157.642 23.5464 157.351 23.5464H142.261V22.9018Z" fill="#111111"/>
<path d="M133.58 4.85484L136.512 5.18823C136.454 5.49938 136.318 5.74386 135.794 5.83276V24.2132C135.794 24.4799 134.842 25.08 134.007 25.08H133.58V4.85484ZM129.055 6.63288C134.492 7.54412 132.725 12.1226 130.725 10.4557C130.55 9.16658 129.734 7.6997 128.899 6.81068L129.055 6.63288ZM128.686 12.1448C134.182 12.8116 132.453 17.4345 130.414 15.8342C130.2 14.5674 129.346 13.1449 128.53 12.3004L128.686 12.1448ZM120.276 11.278H125.87L126.918 9.56664C126.918 9.56664 128.103 10.7446 128.783 11.5447C128.744 11.7892 128.53 11.9003 128.258 11.9003H120.432L120.276 11.278ZM126.083 4.36588L128.589 6.85513C128.375 7.07739 127.948 7.14407 127.326 6.89958C125.559 7.45522 122.723 7.98863 120.218 8.12198L120.16 7.85528C122.277 7.01071 124.821 5.47716 126.083 4.36588ZM123.19 11.3669H125.52V11.7225C124.607 15.4342 122.704 18.5457 120.082 20.8794L119.869 20.6349C121.48 18.1679 122.607 14.5896 123.19 11.3669ZM123.345 7.38855L125.578 6.36617V24.4355C125.559 24.591 124.84 25.1689 123.753 25.1689H123.345V7.38855ZM125.423 13.0783C130.142 14.7674 128.336 18.5457 126.646 16.9455C126.51 15.6786 125.811 14.2118 125.248 13.2116L125.423 13.0783ZM127.132 19.1903L135.949 17.2789L136.881 15.2119C136.881 15.2119 138.047 16.2343 138.746 16.9455C138.746 17.1677 138.571 17.3455 138.338 17.39L127.384 19.7681L127.132 19.1903Z" fill="#111111"/>
<path d="M104.72 15.7675H112.353L113.324 14.3895C113.324 14.3895 114.45 15.3452 115.149 16.0342C115.11 16.2786 114.897 16.3898 114.625 16.3898H104.876L104.72 15.7675ZM109.944 6.87728H113.654L114.858 5.16592C114.858 5.16592 116.217 6.32164 117.052 7.14398C116.994 7.38846 116.8 7.49959 116.528 7.49959H109.944V6.87728ZM110.721 17.0343C116.081 17.9233 114.955 22.1239 113.091 20.8793C112.702 19.6125 111.498 18.0789 110.546 17.1899L110.721 17.0343ZM105.652 11.7447C109.537 13.1449 107.711 16.3231 106.293 14.834C106.293 13.8338 105.866 12.6337 105.458 11.878L105.652 11.7447ZM100.7 9.87771H115.266L116.567 8.033C116.567 8.033 118.043 9.27763 118.956 10.1666C118.897 10.4111 118.664 10.5223 118.393 10.5223H100.855L100.7 9.87771ZM103.4 22.8352H116.256V23.4797H103.4V22.8352ZM102.118 11.5668L104.914 11.878C104.876 12.1447 104.74 12.367 104.254 12.4559V24.3909C104.254 24.6354 103.322 25.1244 102.526 25.1244H102.118V11.5668ZM115.363 11.5891L118.257 11.9002C118.218 12.2114 118.062 12.4336 117.538 12.5225V24.3909C117.538 24.6132 116.606 25.1244 115.771 25.1244H115.363V11.5891ZM108.779 4.32135L111.751 4.61028C111.712 4.89921 111.556 5.12147 111.071 5.21037V10.2555H108.779V4.32135ZM103.963 5.4104L106.721 5.6771C106.682 5.96603 106.546 6.16606 106.08 6.23274V10.2111H103.963V5.4104ZM108.721 11.1446L111.44 11.4557C111.401 11.7669 111.226 11.9891 110.721 12.078V21.5683C110.721 21.7683 109.847 22.1906 109.09 22.1906H108.721V11.1446ZM108.022 15.8119H110.488C109.381 18.3901 107.09 20.4348 104.72 21.635L104.565 21.3683C106.118 19.9458 107.497 17.7233 108.022 15.8119ZM112.43 11.5668L114.722 12.7003C114.664 12.9226 114.489 13.0337 114.003 12.9671C113.44 13.5671 112.236 14.5895 111.498 15.2563L111.304 15.0562C111.673 14.0561 112.178 12.4336 112.43 11.5668Z" fill="#111111"/>
<path d="M89.1641 6.83295H91.4169V22.4797H89.1641V6.83295ZM82.6969 6.72182V5.58833L85.1439 6.72182H96.544V7.36636H84.9497V23.791C84.9497 24.1021 84.0564 24.7467 83.0659 24.7467H82.6969V6.72182ZM95.806 6.72182H95.6118L96.7188 5.32162L98.9134 7.32191C98.7774 7.52194 98.5055 7.67752 98.1171 7.78865V23.7243C98.0977 23.9243 97.0101 24.5244 96.1556 24.5244H95.806V6.72182ZM84.037 14.2785H96.6605V14.9008H84.037V14.2785ZM84.037 22.1018H96.6605V22.7242H84.037V22.1018Z" fill="#111111"/>
<path d="M68.5196 11.7667C70.0151 18.6121 74.6567 21.2348 80.4052 22.4127L80.3664 22.6572C79.2788 22.9017 78.5214 23.7462 78.1524 25.0575C72.7923 23.1461 69.4519 19.8123 68.2283 11.9445L68.5196 11.7667ZM65.2764 6.63263H75.8413L77.1425 4.74346C77.1425 4.74346 78.6185 6.01032 79.5119 6.89933C79.4536 7.14381 79.24 7.25494 78.9487 7.25494H65.2764V6.63263ZM64.616 6.63263V6.41037V5.388L67.2767 6.63263H66.9271V11.9445C66.9271 16.0784 66.5776 21.6348 61.9748 25.1242L61.7806 24.9464C64.3053 21.1236 64.616 16.3229 64.616 11.9445V6.63263ZM74.9285 11.7667H74.6761L76.0744 10.2332L78.3272 12.5891C78.1718 12.8558 77.9776 12.9224 77.4727 12.9891C75.5889 18.9455 71.8795 23.3239 64.3247 25.0131L64.2082 24.7464C70.1316 22.3238 73.6273 17.7009 74.9285 11.7667ZM65.4123 11.7667H75.8608V12.4112H65.4123V11.7667Z" fill="#111111"/>
<path d="M43.5638 7.1886H55.8961L57.2167 5.14386C57.2167 5.14386 58.7315 6.52184 59.6054 7.47753C59.5666 7.72201 59.353 7.83314 59.0617 7.83314H43.7191L43.5638 7.1886ZM42.3791 23.1465H57.1973L58.479 21.0128C58.479 21.0128 59.955 22.4797 60.7707 23.4354C60.7124 23.6799 60.5182 23.791 60.2269 23.791H42.5345L42.3791 23.1465ZM49.526 7.1886H51.9148C51.1962 11.7004 49.7979 19.2348 48.8463 23.4132H46.4575C47.448 19.1681 48.8463 11.5892 49.526 7.1886ZM44.496 13.834H55.663V14.4786H44.6708L44.496 13.834ZM54.2453 13.834H54.0511L55.1581 12.4783L57.3526 14.4119C57.2167 14.5897 56.9642 14.7675 56.5564 14.8786V23.4799H54.2453V13.834Z" fill="#111111"/>
<g clip-path="url(#clip0_114_423)">
<path d="M30.8034 4.44763C28.7759 1.70423 26.1599 0 23.9867 0C22.3611 0 20.6249 1.17218 19.1042 3.29207C18.574 4.03196 17.8166 4.45594 17.0184 4.45594C16.2202 4.45594 15.457 4.03196 14.9326 3.29207C13.4119 1.17218 11.6815 0 10.0502 0C7.87114 0 5.26097 1.70423 3.23342 4.44763C0.92038 7.57343 -0.239051 11.4308 0.0406104 15.0388C0.384361 19.4449 2.30704 26.877 4.81817 33.5276C6.07082 36.8363 7.34678 39.6379 8.51786 41.6414C10.1492 44.4264 11.2038 45.0083 11.8039 45.0083C12.0544 45.0083 12.2875 44.9086 12.4972 44.7173C13.1032 44.1437 13.744 42.8635 14.4607 40.7935C14.8976 39.5298 15.9056 38.7068 17.0184 38.7068C18.1312 38.7068 19.145 39.5298 19.5762 40.7935C20.287 42.8635 20.9279 44.152 21.5396 44.7173C21.7494 44.9086 21.9824 45.0083 22.2329 45.0083C22.8331 45.0083 23.8876 44.4264 25.519 41.6414C26.6901 39.6462 27.966 36.8363 29.2187 33.5276C31.7298 26.877 33.6525 19.4449 33.9962 15.0388C34.2759 11.4308 33.1165 7.57343 30.8034 4.45594V4.44763ZM32.0386 14.806C31.7181 18.9045 29.8246 26.1786 27.4358 32.5051C26.2356 35.6808 25.0237 38.3493 23.9226 40.2198C23.2234 41.4086 22.7224 42.0155 22.4194 42.3231C22.1922 41.9158 21.8484 41.1676 21.3881 39.8374C20.6424 37.676 18.9294 36.2793 17.0184 36.2793C15.1074 36.2793 13.3945 37.676 12.6487 39.8374C12.1884 41.1676 11.8447 41.9158 11.6174 42.3231C11.3145 42.0155 10.8076 41.4086 10.1143 40.2198C9.0131 38.341 7.80123 35.6725 6.60101 32.5051C4.21223 26.1786 2.31869 18.9045 1.99824 14.806C1.77102 11.8797 2.74984 8.69573 4.68999 6.07704C6.333 3.85738 8.43629 2.41918 10.056 2.41918C11.0931 2.41918 12.3341 3.31701 13.4644 4.89655C14.3675 6.15186 15.6609 6.87512 17.0242 6.87512C18.3876 6.87512 19.6869 6.15186 20.5841 4.89655C21.7086 3.32533 22.9496 2.41918 23.9925 2.41918C25.6064 2.41918 27.7155 3.85738 29.3585 6.07704C31.2987 8.69573 32.2775 11.8797 32.0502 14.806H32.0386Z" fill="#EDB0BF"/>
<path d="M36.088 4.44763C34.0605 1.70423 31.4445 9.53674e-07 29.2713 9.53674e-07C27.6457 9.53674e-07 25.9095 1.17218 24.3888 3.29208C23.8587 4.03196 23.1012 4.45594 22.303 4.45594C21.5048 4.45594 20.7416 4.03196 20.2172 3.29208C18.6966 1.17218 16.9662 9.53674e-07 15.3348 9.53674e-07C13.1558 9.53674e-07 10.5456 1.70423 8.51803 4.44763C6.21082 7.57343 5.04556 11.4308 5.32523 15.0305C5.66898 19.4365 7.59165 26.8686 10.1028 33.5193C11.3554 36.828 12.6314 39.6296 13.8025 41.6331C15.4338 44.4181 16.4884 45 17.0885 45C17.339 45 17.5721 44.9002 17.7818 44.709C18.3878 44.1354 19.0287 42.8552 19.7453 40.7852C20.1823 39.5215 21.1902 38.6985 22.303 38.6985C23.4159 38.6985 24.4296 39.5215 24.8608 40.7852C25.5716 42.8552 26.2125 44.1437 26.8242 44.709C27.034 44.9002 27.267 45 27.5176 45C28.1177 45 29.1722 44.4181 30.8036 41.6331C31.9747 39.6379 33.2506 36.828 34.5033 33.5193C37.0144 26.8686 38.9371 19.4365 39.2808 15.0305C39.5605 11.4225 38.4011 7.56512 36.088 4.44763ZM37.3232 14.806C37.0028 18.9045 35.1092 26.1786 32.7204 32.5051C31.5202 35.6808 30.3084 38.3493 29.2072 40.2198C28.508 41.4086 28.007 42.0155 27.704 42.3231C27.4768 41.9158 27.133 41.1676 26.6727 39.8374C25.927 37.676 24.2141 36.2793 22.303 36.2793C20.392 36.2793 18.6791 37.676 17.9333 39.8374C17.473 41.1676 17.1293 41.9158 16.9021 42.3231C16.5991 42.0155 16.0922 41.4086 15.3989 40.2198C14.2977 38.341 13.0858 35.6725 11.8856 32.5051C9.49685 26.1786 7.60331 18.9045 7.28286 14.806C7.05563 11.8797 8.03445 8.69573 9.97461 6.07704C11.6176 3.85738 13.7209 2.41918 15.3406 2.41918C16.3777 2.41918 17.6187 3.31702 18.749 4.89655C19.6521 6.15186 20.9455 6.87512 22.3089 6.87512C23.6722 6.87512 24.9715 6.15186 25.8687 4.89655C26.9932 3.32533 28.2342 2.41918 29.2771 2.41918C30.891 2.41918 33.0001 3.85738 34.6431 6.07704C36.5833 8.69573 37.5621 11.8797 37.3349 14.806H37.3232Z" fill="#C0E5E8"/>
</g>
<defs>
<clipPath id="clip0_114_423">
<rect width="39.3216" height="45" fill="white"/>
</clipPath>
</defs>
</svg>
